<?xml version="1.0" encoding="UTF-8"?>
<!DOCTYPE svg PUBLIC "-//W3C//DTD SVG 1.1//EN" "http://www.w3.org/Graphics/SVG/1.1/DTD/svg11.dtd">
<svg version="1.1" xmlns="http://www.w3.org/2000/svg" xmlns:xlink="http://www.w3.org/1999/xlink" x="0" y="0" width="316.477" height="167.542" viewBox="0, 0, 316.477, 167.542">
  <defs>
    <linearGradient id="Gradient_1" gradientUnits="userSpaceOnUse" x1="52.356" y1="-64.784" x2="66.733" y2="-64.784" gradientTransform="matrix(0.498, 0.867, -0.867, 0.498, 0, 0)">
      <stop offset="0" stop-color="#2039CE"/>
      <stop offset="1" stop-color="#74140B"/>
    </linearGradient>
    <linearGradient id="Gradient_2" gradientUnits="userSpaceOnUse" x1="129.604" y1="114.481" x2="150.21" y2="114.481">
      <stop offset="0" stop-color="#2039CE"/>
      <stop offset="1" stop-color="#74140B"/>
    </linearGradient>
    <radialGradient id="Gradient_3" gradientUnits="userSpaceOnUse" cx="141.268" cy="124.824" r="28.772" fx="124.005" fy="124.824">
      <stop offset="0" stop-color="#2B49FF"/>
      <stop offset="1" stop-color="#000A44"/>
    </radialGradient>
    <radialGradient id="Gradient_4" gradientUnits="userSpaceOnUse" cx="101.596" cy="21.148" r="11.596" fx="94.638" fy="21.148">
      <stop offset="0" stop-color="#BF2213"/>
      <stop offset="1" stop-color="#000000"/>
    </radialGradient>
    <radialGradient id="Gradient_5" gradientUnits="userSpaceOnUse" cx="82.416" cy="16.527" r="19.107" fx="70.952" fy="16.527">
      <stop offset="0" stop-color="#2B49FF"/>
      <stop offset="1" stop-color="#000A44"/>
    </radialGradient>
    <radialGradient id="Gradient_6" gradientUnits="userSpaceOnUse" cx="159.633" cy="100.522" r="16.311" fx="149.846" fy="100.522">
      <stop offset="0" stop-color="#BF2213"/>
      <stop offset="1" stop-color="#000000"/>
    </radialGradient>
  </defs>
  <g id="Layer_1">
    <path d="M42.92,66.495 C42.92,66.495 43.086,66.525 43.15,66.578 C43.214,66.631 43.316,66.77 43.38,66.878 C43.444,66.985 43.547,67.207 43.61,67.355 C43.674,67.503 43.777,67.777 43.84,67.943 C43.904,68.108 44.007,68.392 44.071,68.55 C44.134,68.708 44.237,68.956 44.301,69.079 C44.364,69.203 44.467,69.373 44.531,69.441 C44.595,69.509 44.697,69.571 44.761,69.57 C44.825,69.569 44.927,69.506 44.991,69.433 C45.055,69.359 45.157,69.177 45.221,69.04 C45.285,68.902 45.387,68.624 45.451,68.442 C45.515,68.259 45.617,67.925 45.681,67.725 C45.745,67.525 45.847,67.187 45.911,67.001 C45.975,66.815 46.077,66.526 46.141,66.385 C46.205,66.244 46.307,66.055 46.371,65.984 C46.435,65.913 46.537,65.859 46.601,65.873 C46.665,65.887 46.768,65.984 46.831,66.086 C46.895,66.187 46.998,66.427 47.061,66.603 C47.125,66.78 47.228,67.132 47.292,67.359 C47.355,67.587 47.458,67.998 47.522,68.242 C47.585,68.486 47.688,68.895 47.752,69.116 C47.815,69.338 47.918,69.677 47.982,69.839 C48.046,70.001 48.148,70.211 48.212,70.284 C48.276,70.357 48.378,70.397 48.442,70.363 C48.506,70.33 48.608,70.184 48.672,70.045 C48.736,69.906 48.838,69.588 48.902,69.359 C48.966,69.13 49.068,68.682 49.132,68.396 C49.196,68.11 49.298,67.597 49.362,67.298 C49.426,66.998 49.528,66.501 49.592,66.235 C49.656,65.969 49.758,65.569 49.822,65.383 C49.886,65.197 49.989,64.965 50.052,64.893 C50.116,64.822 50.219,64.805 50.282,64.866 C50.346,64.927 50.449,65.141 50.513,65.332 C50.577,65.523 50.679,65.946 50.743,66.244 C50.807,66.542 50.909,67.116 50.973,67.478 C51.037,67.84 51.139,68.482 51.203,68.853 C51.267,69.223 51.369,69.831 51.433,70.15 C51.497,70.47 51.599,70.942 51.663,71.155 C51.727,71.368 51.829,71.62 51.893,71.685 C51.957,71.751 52.06,71.729 52.123,71.628 C52.187,71.527 52.29,71.217 52.353,70.956 C52.417,70.695 52.52,70.132 52.583,69.744 C52.647,69.356 52.75,68.617 52.814,68.158 C52.877,67.7 52.98,66.895 53.044,66.436 C53.107,65.977 53.21,65.234 53.274,64.851 C53.338,64.467 53.44,63.911 53.504,63.67 C53.568,63.428 53.67,63.161 53.734,63.11 C53.798,63.059 53.9,63.142 53.964,63.301 C54.028,63.46 54.13,63.9 54.194,64.255 C54.258,64.61 54.36,65.356 54.424,65.862 C54.488,66.367 54.59,67.315 54.654,67.896 C54.718,68.477 54.82,69.485 54.884,70.052 C54.948,70.618 55.05,71.523 55.114,71.982 C55.178,72.44 55.28,73.089 55.344,73.358 C55.408,73.627 55.511,73.897 55.574,73.921 C55.638,73.945 55.741,73.77 55.804,73.531 C55.868,73.292 55.971,72.675 56.035,72.196 C56.098,71.717 56.201,70.733 56.265,70.079 C56.328,69.424 56.431,68.212 56.495,67.479 C56.558,66.746 56.661,65.492 56.725,64.796 C56.789,64.1 56.891,63.005 56.955,62.462 C57.019,61.919 57.121,61.173 57.185,60.881 C57.249,60.589 57.351,60.335 57.415,60.356 C57.479,60.377 57.581,60.685 57.645,61.035 C57.709,61.384 57.811,62.235 57.875,62.875 C57.939,63.514 58.041,64.8 58.105,65.642 C58.169,66.483 58.271,68.021 58.335,68.938 C58.399,69.855 58.501,71.405 58.565,72.253 C58.629,73.1 58.732,74.41 58.795,75.044 C58.859,75.679 58.962,76.52 59.025,76.826 C59.089,77.132 59.192,77.34 59.256,77.248 C59.319,77.157 59.422,76.662 59.486,76.166 C59.549,75.67 59.652,74.514 59.716,73.671 C59.779,72.829 59.882,71.163 59.946,70.093 C60.01,69.022 60.112,67.091 60.176,65.955 C60.24,64.819 60.342,62.925 60.406,61.906 C60.47,60.887 60.572,59.34 60.636,58.611 C60.7,57.883 60.802,56.956 60.866,56.653 C60.93,56.349 61.032,56.228 61.096,56.422 C61.16,56.616 61.262,57.366 61.326,58.053 C61.39,58.741 61.492,60.284 61.556,61.379 C61.62,62.475 61.722,64.602 61.786,65.948 C61.85,67.293 61.953,69.689 62.016,71.078 C62.08,72.468 62.183,74.753 62.246,75.962 C62.31,77.17 62.413,78.967 62.476,79.787 C62.54,80.608 62.643,81.596 62.707,81.873 C62.77,82.151 62.873,82.128 62.937,81.79 C63,81.451 63.103,80.366 63.167,79.435 C63.231,78.504 63.333,76.482 63.397,75.08 C63.461,73.677 63.563,70.999 63.627,69.33 C63.691,67.662 63.793,64.731 63.857,63.056 C63.921,61.38 64.023,58.664 64.087,57.254 C64.151,55.845 64.253,53.796 64.317,52.896 C64.381,51.995 64.484,50.983 64.547,50.764 C64.611,50.545 64.714,50.784 64.778,51.315 C64.841,51.847 64.944,53.361 65.008,54.593 C65.071,55.825 65.174,58.428 65.238,60.194 C65.301,61.959 65.404,65.28 65.468,67.317 C65.532,69.354 65.634,72.885 65.698,74.874 C65.762,76.864 65.864,80.039 65.928,81.654 C65.992,83.269 66.094,85.554 66.158,86.515 C66.222,87.475 66.324,88.457 66.388,88.575 C66.452,88.694 66.554,88.152 66.618,87.371 C66.682,86.59 66.784,84.541 66.848,82.947 C66.912,81.352 67.014,78.064 67.078,75.879 C67.142,73.694 67.244,69.644 67.308,67.197 C67.372,64.75 67.475,60.565 67.538,58.243 C67.602,55.921 67.705,52.276 67.768,50.462 C67.832,48.648 67.935,46.159 67.998,45.171 C68.062,44.182 68.165,43.304 68.229,43.337 C68.292,43.369 68.395,44.315 68.459,45.408 C68.522,46.501 68.625,49.193 68.689,51.213 C68.753,53.233 68.855,57.307 68.919,59.965 C68.983,62.622 69.085,67.475 69.149,70.364 C69.213,73.254 69.315,78.129 69.379,80.791 C69.443,83.453 69.545,87.558 69.609,89.551 C69.673,91.544 69.775,94.182 69.839,95.157 C69.903,96.131 70.005,96.816 70.069,96.572 C70.133,96.329 70.235,94.871 70.299,93.401 C70.363,91.932 70.465,88.485 70.529,85.981 C70.593,83.476 70.696,78.523 70.759,75.35 C70.823,72.177 70.926,66.465 70.989,63.112 C71.053,59.76 71.156,54.184 71.219,51.189 C71.283,48.194 71.386,43.665 71.45,41.525 C71.513,39.386 71.616,36.676 71.68,35.77 C71.743,34.864 71.846,34.477 71.91,34.996 C71.974,35.515 72.076,37.598 72.14,39.508 C72.204,41.418 72.306,45.721 72.37,48.762 C72.434,51.804 72.536,57.708 72.6,61.427 C72.664,65.146 72.766,71.749 72.83,75.568 C72.894,79.386 72.996,85.645 73.06,88.95 C73.124,92.254 73.226,97.143 73.29,99.381 C73.354,101.619 73.456,104.303 73.52,105.078 C73.584,105.853 73.686,105.827 73.75,104.966 C73.814,104.106 73.916,101.285 73.98,98.877 C74.044,96.467 74.147,91.221 74.21,87.604 C74.274,83.987 74.377,77.086 74.44,72.808 C74.504,68.53 74.607,61.038 74.671,56.769 C74.734,52.5 74.837,45.61 74.901,42.04 C74.964,38.47 75.067,33.311 75.131,31.036 C75.195,28.761 75.297,26.218 75.361,25.642 C75.425,25.067 75.527,25.625 75.591,26.891 C75.655,28.158 75.757,31.815 75.821,34.77 C75.885,37.725 75.987,43.977 76.051,48.191 C76.115,52.406 76.217,60.317 76.281,65.146 C76.345,69.975 76.447,78.314 76.511,82.995 C76.575,87.677 76.677,95.112 76.741,98.888 C76.805,102.664 76.907,107.973 76.971,110.213 C77.035,112.453 77.137,114.727 77.201,115.031 C77.265,115.335 77.368,114.132 77.431,112.403 C77.495,110.674 77.598,106.102 77.661,102.568 C77.725,99.035 77.828,91.749 77.892,86.937 C77.955,82.125 78.058,73.233 78.122,67.886 C78.185,62.539 78.288,53.434 78.352,48.399 C78.415,43.364 78.518,35.506 78.582,31.6 C78.646,27.694 78.748,22.373 78.812,20.249 C78.876,18.124 78.978,16.251 79.042,16.287 C79.106,16.323 79.208,18.272 79.272,20.508 C79.336,22.744 79.438,28.281 79.502,32.403 C79.566,36.526 79.668,44.836 79.732,50.221 C79.796,55.606 79.898,65.407 79.962,71.215 C80.026,77.023 80.128,86.772 80.192,92.079 C80.256,97.386 80.359,105.518 80.423,109.464 C80.486,113.41 80.589,118.59 80.653,120.517 C80.717,122.444 80.819,123.788 80.883,123.352 C80.947,122.916 81.049,120.143 81.113,117.372 C81.177,114.602 81.279,108.085 81.343,103.386 C81.407,98.686 81.509,89.41 81.573,83.503 C81.637,77.596 81.739,67.002 81.803,60.815 C81.867,54.628 81.969,44.392 82.033,38.91 C82.097,33.429 82.199,25.197 82.263,21.309 C82.327,17.421 82.429,12.539 82.493,10.889 C82.557,9.24 82.66,8.537 82.723,9.421 C82.787,10.305 82.89,13.952 82.953,17.261 C83.017,20.571 83.12,28.039 83.183,33.277 C83.247,38.514 83.35,48.657 83.414,55.009 C83.477,61.361 83.58,72.591 83.644,79.055 C83.707,85.519 83.81,96.053 83.874,101.598 C83.938,107.143 84.04,115.289 84.104,119.019 C84.168,122.749 84.27,127.181 84.334,128.481 C84.398,129.781 84.5,129.752 84.564,128.391 C84.628,127.03 84.73,122.501 84.794,118.671 C84.858,114.84 84.96,106.493 85.024,100.781 C85.088,95.07 85.19,84.203 85.254,77.506 C85.318,70.809 85.42,59.137 85.484,52.514 C85.548,45.892 85.65,35.269 85.714,29.778 C85.778,24.286 85.88,16.415 85.944,12.939 C86.008,9.462 86.111,5.617 86.174,4.723 C86.238,3.828 86.341,4.648 86.404,6.494 C86.468,8.341 86.571,13.722 86.635,18.03 C86.698,22.339 86.801,31.45 86.865,37.548 C86.928,43.646 87.031,55.054 87.095,61.978 C87.158,68.902 87.261,80.799 87.325,87.451 C87.389,94.103 87.491,104.599 87.555,109.919 C87.619,115.24 87.721,122.657 87.785,125.794 C87.849,128.932 87.951,132.081 88.015,132.531 C88.079,132.98 88.181,131.349 88.245,129.032 C88.309,126.716 88.411,120.553 88.475,115.834 C88.539,111.114 88.641,101.392 88.705,95.016 C88.769,88.639 88.871,76.899 88.935,69.878 C88.999,62.858 89.101,50.964 89.165,44.414 C89.229,37.864 89.332,27.707 89.395,22.668 C89.459,17.628 89.562,10.822 89.625,8.093 C89.689,5.364 89.792,2.987 89.856,3 C89.919,3.013 90.022,5.437 90.086,8.186 C90.149,10.935 90.252,17.77 90.316,22.814 C90.379,27.858 90.482,38.008 90.546,44.541 C90.61,51.075 90.712,62.921 90.776,69.903 C90.84,76.886 90.942,88.544 91.006,94.867 C91.07,101.19 91.172,110.812 91.236,115.475 C91.3,120.138 91.402,126.206 91.466,128.477 C91.53,130.748 91.632,132.314 91.696,131.845 C91.76,131.375 91.862,128.214 91.926,125.091 C91.99,121.968 92.092,114.606 92.156,109.339 C92.22,104.073 92.322,93.698 92.386,87.135 C92.45,80.572 92.553,68.848 92.616,62.036 C92.68,55.223 92.783,44.017 92.846,38.035 C92.91,32.053 93.013,23.133 93.076,18.922 C93.14,14.711 93.243,9.472 93.307,7.685 C93.37,5.898 93.473,5.141 93.537,6.04 C93.6,6.94 93.703,10.747 93.767,14.167 C93.831,17.587 93.933,25.314 93.997,30.692 C94.061,36.069 94.163,46.458 94.227,52.924 C94.291,59.39 94.393,70.771 94.457,77.293 C94.521,83.814 94.623,94.379 94.687,99.925 C94.751,105.471 94.853,113.56 94.917,117.265 C94.981,120.97 95.083,125.33 95.147,126.63 C95.211,127.93 95.314,127.916 95.378,126.634 C95.441,125.352 95.544,121.02 95.608,117.39 C95.671,113.76 95.774,105.846 95.838,100.471 C95.902,95.095 96.004,84.896 96.068,78.647 C96.132,72.397 96.234,61.554 96.298,55.428 C96.362,49.301 96.464,39.532 96.528,34.494 C96.592,29.457 96.694,22.289 96.758,19.118 C96.822,15.947 96.924,12.472 96.988,11.64 C97.052,10.809 97.154,11.52 97.218,13.123 C97.282,14.726 97.384,19.446 97.448,23.193 C97.512,26.939 97.614,34.86 97.678,40.125 C97.742,45.391 97.844,55.213 97.908,61.142 C97.972,67.072 98.075,77.214 98.138,82.862 C98.202,88.511 98.305,97.37 98.368,101.853 C98.432,106.336 98.535,112.54 98.598,115.172 C98.662,117.805 98.765,120.424 98.829,120.825 C98.892,121.226 98.995,119.915 99.059,118.063 C99.122,116.212 99.225,111.251 99.289,107.481 C99.353,103.711 99.455,95.95 99.519,90.892 C99.583,85.834 99.685,76.55 99.749,71.025 C99.813,65.5 99.915,56.185 99.979,51.071 C100.043,45.957 100.145,38.076 100.209,34.169 C100.273,30.262 100.375,25.023 100.439,22.911 C100.503,20.8 100.605,18.972 100.669,18.95 C100.733,18.927 100.835,20.723 100.899,22.746 C100.963,24.77 101.065,29.828 101.129,33.535 C101.193,37.242 101.295,44.694 101.359,49.463 C101.423,54.233 101.526,62.852 101.589,67.911 C101.653,72.971 101.756,81.378 101.819,85.926 C101.883,90.473 101.986,97.353 102.05,100.687 C102.113,104.021 102.216,108.329 102.28,109.956 C102.343,111.583 102.446,112.706 102.51,112.413 C102.574,112.119 102.676,109.96 102.74,107.839 C102.804,105.719 102.906,100.699 102.97,97.131 C103.034,93.563 103.136,86.542 103.2,82.122 C103.264,77.703 103.366,69.834 103.43,65.278 C103.494,60.722 103.596,53.262 103.66,49.288 C103.724,45.313 103.826,39.42 103.89,36.635 C103.954,33.849 104.056,30.405 104.12,29.213 C104.184,28.021 104.286,27.499 104.35,28.043 C104.414,28.587 104.516,30.988 104.58,33.135 C104.644,35.283 104.747,40.15 104.81,43.519 C104.874,46.888 104.977,53.388 105.04,57.417 C105.104,61.445 105.207,68.515 105.271,72.553 C105.334,76.591 105.437,83.106 105.501,86.522 C105.564,89.938 105.667,94.894 105.731,97.171 C105.795,99.448 105.897,102.117 105.961,102.933 C106.025,103.748 106.127,103.779 106.191,103.049 C106.255,102.32 106.357,99.787 106.421,97.673 C106.485,95.559 106.587,90.938 106.651,87.813 C106.715,84.687 106.817,78.764 106.881,75.147 C106.945,71.53 107.047,65.271 107.111,61.743 C107.175,58.215 107.277,52.61 107.341,49.72 C107.405,46.83 107.507,42.734 107.571,40.913 C107.635,39.093 107.737,37.099 107.801,36.598 C107.865,36.097 107.968,36.449 108.031,37.303 C108.095,38.158 108.198,40.725 108.261,42.758 C108.325,44.791 108.428,49.1 108.492,51.955 C108.555,54.811 108.658,60.132 108.722,63.337 C108.785,66.541 108.888,72.01 108.952,75.052 C109.016,78.094 109.118,82.852 109.182,85.262 C109.246,87.672 109.348,90.999 109.412,92.422 C109.476,93.845 109.578,95.271 109.642,95.518 C109.706,95.765 109.808,95.131 109.872,94.203 C109.936,93.276 110.038,90.75 110.102,88.833 C110.166,86.916 110.269,82.959 110.332,80.385 C110.396,77.811 110.499,73.087 110.563,70.281 C110.626,67.474 110.729,62.749 110.793,60.155 C110.856,57.561 110.959,53.57 111.023,51.586 C111.086,49.602 111.189,46.942 111.253,45.857 C111.317,44.771 111.419,43.811 111.483,43.762 C111.547,43.712 111.649,44.541 111.713,45.498 C111.777,46.455 111.879,48.882 111.943,50.662 C112.007,52.442 112.109,56.031 112.173,58.328 C112.237,60.624 112.339,64.776 112.403,67.212 C112.467,69.649 112.569,73.696 112.633,75.888 C112.697,78.08 112.799,81.396 112.863,83.011 C112.927,84.626 113.029,86.72 113.093,87.527 C113.157,88.333 113.26,88.924 113.323,88.826 C113.387,88.728 113.49,87.775 113.553,86.82 C113.617,85.865 113.72,83.574 113.783,81.941 C113.847,80.307 113.95,77.081 114.014,75.048 C114.077,73.015 114.18,69.39 114.244,67.289 C114.307,65.187 114.41,61.741 114.474,59.9 C114.537,58.059 114.64,55.322 114.704,54.019 C114.768,52.716 114.87,51.089 114.934,50.508 C114.998,49.926 115.1,49.623 115.164,49.828 C115.228,50.032 115.33,51.053 115.394,51.984 C115.458,52.916 115.56,55.053 115.624,56.54 C115.688,58.027 115.79,60.911 115.854,62.703 C115.918,64.495 116.02,67.65 116.084,69.457 C116.148,71.265 116.25,74.19 116.314,75.732 C116.378,77.273 116.48,79.523 116.544,80.568 C116.608,81.613 116.711,82.86 116.774,83.263 C116.838,83.666 116.941,83.751 117.004,83.472 C117.068,83.193 117.171,82.145 117.235,81.251 C117.298,80.356 117.401,78.375 117.465,77.025 C117.528,75.676 117.631,73.103 117.695,71.524 C117.758,69.945 117.861,67.199 117.925,65.643 C117.989,64.088 118.091,61.602 118.155,60.311 C118.219,59.02 118.321,57.173 118.385,56.338 C118.449,55.504 118.551,54.56 118.615,54.297 C118.679,54.033 118.781,54.11 118.845,54.439 C118.909,54.769 119.011,55.822 119.075,56.674 C119.139,57.526 119.241,59.358 119.305,60.583 C119.369,61.809 119.471,64.11 119.535,65.506 C119.599,66.902 119.701,69.301 119.765,70.646 C119.829,71.99 119.932,74.11 119.995,75.195 C120.059,76.28 120.162,77.801 120.225,78.466 C120.289,79.131 120.392,79.835 120.455,79.99 C120.519,80.145 120.622,79.947 120.686,79.583 C120.749,79.219 120.852,78.177 120.916,77.367 C120.979,76.556 121.082,74.857 121.146,73.739 C121.21,72.62 121.312,70.549 121.376,69.307 C121.44,68.064 121.542,65.953 121.606,64.782 C121.67,63.612 121.772,61.79 121.836,60.872 C121.9,59.954 122.002,58.697 122.066,58.167 C122.13,57.637 122.232,57.123 122.296,57.053 C122.36,56.983 122.462,57.274 122.526,57.662 C122.59,58.05 122.692,59.078 122.756,59.851 C122.82,60.625 122.922,62.209 122.986,63.238 C123.05,64.267 123.153,66.148 123.216,67.265 C123.28,68.382 123.383,70.259 123.446,71.288 C123.51,72.317 123.613,73.899 123.676,74.681 C123.74,75.464 123.843,76.51 123.907,76.932 C123.97,77.353 124.073,77.715 124.137,77.717 C124.2,77.719 124.303,77.356 124.367,76.949 C124.431,76.542 124.533,75.527 124.597,74.784 C124.661,74.041 124.763,72.547 124.827,71.591 C124.891,70.635 124.993,68.911 125.057,67.896 C125.121,66.88 125.223,65.188 125.287,64.272 C125.351,63.356 125.454,61.97 125.517,61.296 C125.581,60.622 125.684,59.746 125.747,59.413 C125.811,59.08 125.914,58.843 125.978,58.896 C126.041,58.95 126.144,59.374 126.208,59.798 C126.271,60.222 126.374,61.229 126.438,61.95 C126.502,62.67 126.604,64.093 126.668,64.993 C126.732,65.892 126.834,67.499 126.898,68.433 C126.962,69.368 127.064,70.906 127.128,71.73 C127.192,72.553 127.294,73.783 127.358,74.368 C127.422,74.953 127.524,75.687 127.588,75.947 C127.652,76.206 127.754,76.339 127.818,76.238 C127.882,76.137 127.984,75.658 128.048,75.217 C128.112,74.777 128.214,73.77 128.278,73.064 C128.342,72.359 128.444,70.988 128.508,70.132 C128.572,69.276 128.675,67.764 128.738,66.893 C128.802,66.023 128.905,64.606 128.968,63.858 C129.032,63.109 129.135,62.009 129.199,61.498 C129.262,60.986 129.365,60.371 129.429,60.174 C129.492,59.977 129.595,59.936 129.659,60.08 C129.722,60.225 129.825,60.757 129.889,61.215 C129.953,61.674 130.055,62.688 130.119,63.385 C130.183,64.082 130.285,65.415 130.349,66.238 C130.413,67.062 130.515,68.5 130.579,69.319 C130.643,70.138 130.745,71.454 130.809,72.141 C130.873,72.827 130.975,73.819 131.039,74.266 C131.103,74.714 131.205,75.226 131.269,75.367 C131.333,75.508 131.435,75.466 131.499,75.281 C131.563,75.097 131.665,74.514 131.729,74.036 C131.793,73.558 131.896,72.529 131.959,71.836 C132.023,71.142 132.126,69.834 132.189,69.036 C132.253,68.237 132.356,66.858 132.419,66.082 C132.483,65.305 132.586,64.071 132.65,63.438 C132.713,62.805 132.816,61.91 132.88,61.519 C132.943,61.128 133.046,60.709 133.11,60.62 C133.174,60.53 133.276,60.649 133.34,60.872 C133.404,61.096 133.506,61.731 133.57,62.23 C133.634,62.729 133.736,63.775 133.8,64.469 C133.864,65.163 133.966,66.454 134.03,67.233 C134.094,68.012 134.196,69.342 134.26,70.082 C134.324,70.822 134.426,71.983 134.49,72.568 C134.554,73.154 134.656,73.962 134.72,74.302 C134.784,74.641 134.886,74.973 134.95,75.015 C135.014,75.056 135.116,74.862 135.18,74.601 C135.244,74.34 135.347,73.654 135.41,73.133 C135.474,72.612 135.577,71.545 135.641,70.848 C135.704,70.151 135.807,68.872 135.871,68.109 C135.934,67.347 136.037,66.06 136.101,65.352 C136.164,64.644 136.267,63.551 136.331,63.01 C136.395,62.469 136.497,61.741 136.561,61.451 C136.625,61.16 136.727,60.911 136.791,60.916 C136.855,60.92 136.957,61.187 137.021,61.484 C137.085,61.782 137.187,62.52 137.251,63.062 C137.315,63.605 137.417,64.695 137.481,65.395 C137.545,66.096 137.647,67.365 137.711,68.112 C137.775,68.86 137.877,70.108 137.941,70.784 C138.005,71.461 138.107,72.49 138.171,72.989 C138.235,73.487 138.337,74.136 138.401,74.38 C138.465,74.623 138.568,74.792 138.631,74.742 C138.695,74.693 138.798,74.356 138.861,74.023 C138.925,73.689 139.028,72.902 139.092,72.339 C139.155,71.775 139.258,70.664 139.322,69.96 C139.385,69.256 139.488,67.997 139.552,67.264 C139.616,66.531 139.718,65.323 139.782,64.677 C139.846,64.032 139.948,63.066 140.012,62.609 C140.076,62.152 140.178,61.58 140.242,61.383 C140.306,61.186 140.408,61.095 140.472,61.188 C140.536,61.281 140.639,61.686 140.702,62.054 C140.766,62.422 140.869,63.256 140.932,63.84 C140.996,64.423 141.099,65.553 141.163,66.26 C141.226,66.966 141.329,68.212 141.393,68.929 C141.456,69.646 141.559,70.812 141.623,71.427 C141.686,72.042 141.789,72.944 141.853,73.359 C141.917,73.775 142.019,74.271 142.083,74.422 C142.147,74.574 142.249,74.587 142.313,74.451 C142.377,74.315 142.479,73.844 142.543,73.444 C142.607,73.044 142.709,72.166 142.773,71.565 C142.837,70.964 142.939,69.817 143.003,69.111 C143.067,68.405 143.169,67.174 143.233,66.475 C143.297,65.775 143.399,64.652 143.463,64.07 C143.527,63.488 143.629,62.652 143.693,62.279 C143.757,61.905 143.86,61.486 143.923,61.379 C143.987,61.273 144.09,61.336 144.153,61.512 C144.217,61.689 144.32,62.222 144.383,62.653 C144.447,63.084 144.55,64.002 144.614,64.618 C144.677,65.235 144.78,66.391 144.844,67.095 C144.907,67.799 145.01,69.01 145.074,69.69 C145.138,70.369 145.24,71.444 145.304,71.992 C145.368,72.541 145.47,73.31 145.534,73.641 C145.598,73.972 145.7,74.314 145.764,74.376 C145.828,74.438 145.93,74.303 145.994,74.087 C146.058,73.87 146.16,73.278 146.224,72.819 C146.288,72.36 146.39,71.407 146.454,70.779 C146.518,70.15 146.62,68.988 146.684,68.29 C146.748,67.592 146.85,66.405 146.914,65.748 C146.978,65.09 147.081,64.066 147.144,63.553 C147.208,63.041 147.311,62.34 147.374,62.052 C147.438,61.765 147.541,61.498 147.604,61.479 C147.668,61.461 147.771,61.668 147.835,61.922 C147.898,62.175 148.001,62.822 148.065,63.306 C148.128,63.79 148.231,64.773 148.295,65.41 C148.358,66.047 148.461,67.206 148.525,67.896 C148.589,68.585 148.691,69.746 148.755,70.379 C148.819,71.012 148.921,71.982 148.985,72.458 C149.049,72.933 149.151,73.563 149.215,73.808 C149.279,74.052 149.381,74.243 149.445,74.219 C149.509,74.194 149.611,73.919 149.675,73.63 C149.739,73.342 149.841,72.645 149.905,72.138 C149.969,71.632 150.071,70.625 150.135,69.983 C150.199,69.34 150.301,68.183 150.365,67.505 C150.429,66.828 150.532,65.705 150.595,65.1 C150.659,64.495 150.762,63.583 150.825,63.145 C150.889,62.708 150.992,62.15 151.056,61.949 C151.119,61.748 151.222,61.63 151.286,61.696 C151.349,61.762 151.452,62.102 151.516,62.423 C151.579,62.745 151.682,63.487 151.746,64.012 C151.81,64.537 151.912,65.562 151.976,66.206 C152.04,66.851 152.142,67.996 152.206,68.658 C152.27,69.32 152.372,70.405 152.436,70.98 C152.5,71.555 152.602,72.406 152.666,72.804 C152.73,73.202 152.832,73.688 152.896,73.846 C152.96,74.004 153.062,74.049 153.126,73.944 C153.19,73.838 153.292,73.437 153.356,73.086 C153.42,72.735 153.522,71.953 153.586,71.413 C153.65,70.873 153.753,69.836 153.816,69.192 C153.88,68.549 153.983,67.421 154.046,66.777 C154.11,66.133 154.213,65.094 154.277,64.55 C154.34,64.007 154.443,63.219 154.507,62.861 C154.57,62.504 154.673,62.091 154.737,61.975 C154.8,61.86 154.903,61.885 154.967,62.028 C155.031,62.171 155.133,62.628 155.197,63.006 C155.261,63.384 155.363,64.2 155.427,64.752 C155.491,65.304 155.593,66.347 155.657,66.985 C155.721,67.623 155.823,68.728 155.887,69.351 C155.951,69.974 156.054,70.966 156.117,71.475 C156.181,71.985 156.284,72.708 156.347,73.024 C156.411,73.34 156.514,73.682 156.578,73.756 C156.641,73.83 156.744,73.737 156.808,73.559 C156.871,73.38 156.974,72.871 157.038,72.469 C157.102,72.067 157.204,71.224 157.268,70.664 C157.332,70.104 157.434,69.061 157.498,68.431 C157.562,67.801 157.664,66.725 157.728,66.126 C157.792,65.527 157.894,64.586 157.958,64.112 C158.022,63.638 158.124,62.982 158.188,62.706 C158.252,62.431 158.354,62.161 158.418,62.127 C158.482,62.093 158.584,62.25 158.648,62.461 C158.712,62.672 158.814,63.229 158.878,63.651 C158.942,64.073 159.044,64.939 159.108,65.504 C159.172,66.069 159.275,67.106 159.338,67.724 C159.402,68.342 159.505,69.385 159.568,69.958 C159.632,70.531 159.735,71.417 159.799,71.855 C159.862,72.293 159.965,72.881 160.029,73.116 C160.092,73.35 160.195,73.551 160.259,73.547 C160.323,73.542 160.425,73.325 160.489,73.083 C160.553,72.841 160.655,72.243 160.719,71.804 C160.783,71.364 160.885,70.482 160.949,69.915 C161.013,69.349 161.115,68.324 161.179,67.72 C161.243,67.117 161.346,66.11 161.409,65.565 C161.473,65.02 161.576,64.192 161.639,63.791 C161.703,63.39 161.806,62.87 161.87,62.676 C161.933,62.482 162.036,62.348 162.1,62.39 C162.163,62.431 162.266,62.705 162.33,62.975 C162.393,63.244 162.496,63.879 162.56,64.332 C162.624,64.785 162.726,65.678 162.79,66.242 C162.854,66.807 162.956,67.816 163.02,68.402 C163.084,68.989 163.186,69.953 163.25,70.468 C163.314,70.984 163.416,71.753 163.48,72.116 C163.544,72.48 163.646,72.933 163.71,73.088 C163.774,73.243 163.876,73.311 163.94,73.235 C164.004,73.159 164.106,72.832 164.17,72.538 C164.234,72.244 164.336,71.579 164.4,71.114 C164.464,70.65 164.567,69.752 164.63,69.192 C164.694,68.632 164.797,67.645 164.86,67.078 C164.924,66.511 165.027,65.59 165.09,65.106 C165.154,64.622 165.257,63.913 165.321,63.588 C165.384,63.262 165.487,62.875 165.551,62.758 C165.614,62.641 165.717,62.635 165.781,62.744 C165.845,62.853 165.947,63.226 166.011,63.543 C166.075,63.859 166.177,64.551 166.241,65.023 C166.305,65.495 166.407,66.393 166.471,66.946 C166.535,67.498 166.637,68.461 166.701,69.006 C166.765,69.552 166.867,70.426 166.931,70.878 C166.995,71.33 167.097,71.978 167.161,72.266 C167.225,72.555 167.327,72.877 167.391,72.957 C167.455,73.038 167.557,72.984 167.621,72.845 C167.685,72.706 167.787,72.289 167.851,71.954 C167.915,71.618 168.018,70.906 168.081,70.428 C168.145,69.951 168.248,69.056 168.311,68.513 C168.375,67.97 168.478,67.037 168.542,66.514 C168.605,65.991 168.708,65.166 168.772,64.746 C168.835,64.325 168.938,63.737 169.002,63.485 C169.066,63.233 169.168,62.974 169.232,62.929 C169.296,62.884 169.398,62.992 169.462,63.159 C169.526,63.327 169.628,63.783 169.692,64.135 C169.756,64.487 169.858,65.217 169.922,65.697 C169.986,66.178 170.088,67.065 170.152,67.596 C170.216,68.128 170.318,69.031 170.382,69.531 C170.446,70.03 170.548,70.807 170.612,71.195 C170.676,71.583 170.778,72.111 170.842,72.328 C170.906,72.545 171.008,72.744 171.072,72.756 C171.136,72.767 171.239,72.607 171.302,72.414 C171.366,72.221 171.469,71.729 171.532,71.362 C171.596,70.995 171.699,70.251 171.763,69.77 C171.826,69.289 171.929,68.415 171.993,67.896 C172.056,67.376 172.159,66.502 172.223,66.026 C172.286,65.55 172.389,64.822 172.453,64.465 C172.517,64.108 172.619,63.636 172.683,63.454 C172.747,63.271 172.849,63.13 172.913,63.149 C172.977,63.169 173.079,63.378 173.143,63.595 C173.207,63.812 173.309,64.336 173.373,64.716 C173.437,65.096 173.539,65.852 173.603,66.333 C173.667,66.815 173.769,67.682 173.833,68.189 C173.897,68.696 173.999,69.536 174.063,69.988 C174.127,70.441 174.229,71.123 174.293,71.45 C174.357,71.777 174.46,72.194 174.523,72.344 C174.587,72.494 174.69,72.581 174.753,72.531 C174.817,72.482 174.92,72.228 174.984,71.987 C175.047,71.747 175.15,71.192 175.214,70.8 C175.277,70.408 175.38,69.641 175.444,69.159 C175.508,68.677 175.61,67.82 175.674,67.325 C175.738,66.829 175.84,66.018 175.904,65.587 C175.968,65.156 176.07,64.518 176.134,64.22 C176.198,63.921 176.3,63.555 176.364,63.436 C176.428,63.316 176.531,63.281 176.594,63.359 C176.658,63.437 176.761,63.735 176.824,63.998 C176.888,64.261 176.991,64.846 177.054,65.252 C177.118,65.657 177.221,66.436 177.285,66.92 C177.348,67.404 177.451,68.254 177.515,68.74 C177.578,69.226 177.681,70.012 177.745,70.424 C177.809,70.836 177.911,71.435 177.975,71.708 C178.039,71.98 178.141,72.298 178.205,72.388 C178.269,72.478 178.371,72.464 178.435,72.358 C178.499,72.252 178.601,71.91 178.665,71.624 C178.729,71.338 178.831,70.72 178.895,70.299 C178.959,69.879 179.061,69.083 179.125,68.594 C179.189,68.105 179.291,67.256 179.355,66.776 C179.419,66.295 179.521,65.527 179.585,65.131 C179.649,64.735 179.751,64.17 179.815,63.921 C179.879,63.672 179.982,63.398 180.045,63.336 C180.109,63.273 180.212,63.336 180.275,63.47 C180.339,63.605 180.442,63.995 180.506,64.306 C180.569,64.617 180.672,65.274 180.736,65.713 C180.799,66.152 180.902,66.974 180.966,67.472 C181.029,67.971 181.132,68.828 181.196,69.307 C181.26,69.787 181.362,70.545 181.426,70.93 C181.49,71.316 181.592,71.854 181.656,72.083 C181.72,72.311 181.822,72.544 181.886,72.579 C181.95,72.614 182.052,72.502 182.116,72.337 C182.18,72.172 182.282,71.729 182.346,71.388 C182.41,71.047 182.512,70.343 182.576,69.878 C182.64,69.414 182.742,68.555 182.806,68.039 C182.87,67.523 182.972,66.645 183.036,66.159 C183.1,65.672 183.203,64.913 183.266,64.534 C183.33,64.155 183.433,63.636 183.496,63.425 C183.56,63.214 183.663,63.02 183.726,63.012 C183.79,63.005 183.893,63.171 183.957,63.371 C184.02,63.571 184.123,64.075 184.187,64.453 C184.251,64.832 184.353,65.599 184.417,66.099 C184.481,66.598 184.583,67.512 184.647,68.055 C184.711,68.598 184.813,69.514 184.877,70.015 C184.941,70.517 185.043,71.291 185.107,71.671 C185.171,72.05 185.273,72.557 185.337,72.753 C185.401,72.949 185.503,73.104 185.567,73.081 C185.631,73.058 185.733,72.83 185.797,72.588 C185.861,72.346 185.963,71.765 186.027,71.338 C186.091,70.912 186.193,70.061 186.257,69.513 C186.321,68.966 186.423,67.977 186.487,67.393 C186.551,66.809 186.654,65.834 186.717,65.306 C186.781,64.778 186.884,63.974 186.947,63.587 C187.011,63.2 187.114,62.698 187.178,62.517 C187.241,62.336 187.344,62.222 187.408,62.28 C187.471,62.339 187.574,62.642 187.638,62.937 C187.702,63.231 187.804,63.914 187.868,64.403 C187.932,64.893 188.034,65.855 188.098,66.467 C188.162,67.079 188.264,68.175 188.328,68.815 C188.392,69.455 188.494,70.513 188.558,71.08 C188.622,71.646 188.724,72.498 188.788,72.898 C188.852,73.299 188.954,73.802 189.018,73.968 C189.082,74.134 189.184,74.197 189.248,74.095 C189.312,73.993 189.414,73.593 189.478,73.231 C189.542,72.868 189.644,72.055 189.708,71.483 C189.772,70.91 189.875,69.801 189.938,69.104 C190.002,68.406 190.105,67.169 190.168,66.454 C190.232,65.739 190.335,64.567 190.399,63.949 C190.463,63.33 190.565,62.415 190.629,61.995 C190.693,61.575 190.795,61.07 190.859,60.923 C190.923,60.776 191.025,60.777 191.089,60.936 C191.153,61.095 191.255,61.62 191.319,62.07 C191.383,62.521 191.485,63.504 191.549,64.184 C191.613,64.864 191.715,66.163 191.779,66.972 C191.843,67.781 191.946,69.2 192.009,70.012 C192.073,70.824 192.176,72.14 192.239,72.824 C192.303,73.509 192.406,74.505 192.469,74.947 C192.533,75.39 192.636,75.895 192.7,76.015 C192.763,76.135 192.866,76.048 192.93,75.813 C192.994,75.579 193.096,74.89 193.16,74.325 C193.224,73.759 193.326,72.557 193.39,71.74 C193.454,70.922 193.556,69.38 193.62,68.431 C193.684,67.482 193.786,65.833 193.85,64.901 C193.914,63.97 194.016,62.478 194.08,61.714 C194.144,60.95 194.246,59.861 194.31,59.395 C194.374,58.929 194.476,58.436 194.54,58.355 C194.604,58.275 194.706,58.481 194.77,58.815 C194.834,59.149 194.936,60.051 195,60.763 C195.064,61.475 195.167,62.957 195.23,63.948 C195.294,64.939 195.397,66.784 195.46,67.905 C195.524,69.026 195.627,70.953 195.691,72.028 C195.754,73.104 195.857,74.804 195.921,75.659 C195.984,76.513 196.087,77.702 196.151,78.187 C196.214,78.673 196.317,79.136 196.381,79.158 C196.445,79.18 196.547,78.811 196.611,78.346 C196.675,77.881 196.777,76.704 196.841,75.807 C196.905,74.909 197.007,73.08 197.071,71.876 C197.135,70.672 197.237,68.458 197.301,67.13 C197.365,65.802 197.467,63.545 197.531,62.303 C197.595,61.06 197.697,59.125 197.761,58.172 C197.825,57.22 197.927,55.933 197.991,55.438 C198.055,54.943 198.157,54.541 198.221,54.604 C198.285,54.666 198.387,55.253 198.451,55.887 C198.515,56.521 198.618,58.045 198.681,59.173 C198.745,60.3 198.848,62.554 198.911,64.014 C198.975,65.474 199.078,68.125 199.142,69.695 C199.205,71.265 199.308,73.9 199.372,75.33 C199.435,76.76 199.538,78.951 199.602,80.003 C199.666,81.056 199.768,82.428 199.832,82.916 C199.896,83.404 199.998,83.7 200.062,83.52 C200.126,83.34 200.228,82.466 200.292,81.618 C200.356,80.771 200.458,78.818 200.522,77.412 C200.586,76.005 200.688,73.243 200.752,71.483 C200.816,69.722 200.918,66.566 200.982,64.722 C201.046,62.877 201.148,59.821 201.212,58.188 C201.276,56.555 201.378,54.099 201.442,52.951 C201.506,51.803 201.608,50.371 201.672,49.915 C201.736,49.46 201.839,49.326 201.902,49.665 C201.966,50.004 202.069,51.246 202.132,52.358 C202.196,53.469 202.299,55.941 202.363,57.678 C202.426,59.414 202.529,62.767 202.593,64.872 C202.656,66.977 202.759,70.702 202.823,72.85 C202.887,74.998 202.989,78.508 203.053,80.352 C203.117,82.196 203.219,84.911 203.283,86.141 C203.347,87.37 203.449,88.82 203.513,89.21 C203.577,89.601 203.679,89.498 203.743,88.953 C203.807,88.407 203.909,86.708 203.973,85.278 C204.037,83.848 204.139,80.764 204.203,78.647 C204.267,76.529 204.369,72.505 204.433,70.015 C204.497,67.526 204.599,63.177 204.663,60.705 C204.727,58.233 204.829,54.252 204.893,52.198 C204.957,50.145 205.06,47.19 205.123,45.903 C205.187,44.617 205.29,43.206 205.353,42.924 C205.417,42.642 205.52,43.063 205.584,43.869 C205.648,44.675 205.75,46.928 205.814,48.732 C205.878,50.536 205.98,54.324 206.044,56.872 C206.108,59.419 206.21,64.187 206.274,67.093 C206.338,69.998 206.44,75.008 206.504,77.815 C206.568,80.623 206.67,85.074 206.734,87.325 C206.798,89.575 206.9,92.726 206.964,94.036 C207.028,95.347 207.131,96.642 207.194,96.767 C207.258,96.891 207.361,96.056 207.424,94.933 C207.488,93.81 207.591,90.904 207.654,88.672 C207.718,86.44 207.821,81.862 207.885,78.844 C207.948,75.825 208.051,70.259 208.115,66.915 C208.178,63.571 208.281,57.882 208.345,54.742 C208.409,51.602 208.511,46.706 208.575,44.284 C208.639,41.863 208.741,38.576 208.805,37.288 C208.869,35.999 208.971,34.907 209.035,34.997 C209.099,35.086 209.201,36.435 209.265,37.933 C209.329,39.43 209.431,43.081 209.495,45.79 C209.559,48.499 209.661,53.935 209.725,57.456 C209.789,60.977 209.891,67.376 209.955,71.166 C210.019,74.956 210.121,81.315 210.185,84.77 C210.249,88.226 210.351,93.518 210.415,96.072 C210.479,98.625 210.582,101.963 210.645,103.177 C210.709,104.39 210.812,105.178 210.875,104.815 C210.939,104.453 211.042,102.488 211.106,100.562 C211.169,98.636 211.272,94.157 211.336,90.933 C211.399,87.709 211.502,81.365 211.566,77.326 C211.63,73.286 211.732,66.048 211.796,61.822 C211.86,57.596 211.962,50.604 212.026,46.867 C212.09,43.129 212.192,37.517 212.256,34.883 C212.32,32.249 212.422,28.959 212.486,27.883 C212.55,26.806 212.652,26.429 212.716,27.124 C212.78,27.82 212.882,30.493 212.946,32.894 C213.01,35.295 213.112,40.666 213.176,44.43 C213.24,48.194 213.342,55.467 213.406,60.023 C213.47,64.579 213.572,72.631 213.636,77.266 C213.7,81.9 213.803,89.455 213.866,93.424 C213.93,97.394 214.033,103.224 214.096,105.875 C214.16,108.525 214.263,111.653 214.327,112.527 C214.39,113.402 214.493,113.261 214.557,112.179 C214.62,111.096 214.723,107.634 214.787,104.723 C214.85,101.813 214.953,95.512 215.017,91.2 C215.081,86.889 215.183,78.699 215.247,73.648 C215.311,68.598 215.413,59.794 215.477,54.799 C215.541,49.804 215.643,41.786 215.707,37.651 C215.771,33.515 215.873,27.587 215.937,24.992 C216.001,22.396 216.103,19.553 216.167,18.945 C216.231,18.338 216.333,19.097 216.397,20.614 C216.461,22.131 216.563,26.44 216.627,29.879 C216.691,33.318 216.793,40.554 216.857,45.4 C216.921,50.246 217.023,59.304 217.087,64.806 C217.151,70.308 217.254,79.768 217.317,85.056 C217.381,90.344 217.484,98.696 217.547,102.919 C217.611,107.142 217.714,113.028 217.778,115.491 C217.841,117.955 217.944,120.392 218.008,120.671 C218.071,120.95 218.174,119.489 218.238,117.504 C218.302,115.519 218.404,110.332 218.468,106.365 C218.532,102.397 218.634,94.256 218.698,88.911 C218.762,83.566 218.864,73.729 218.928,67.84 C218.992,61.952 219.094,51.968 219.158,46.47 C219.222,40.973 219.324,32.438 219.388,28.216 C219.452,23.994 219.554,18.294 219.618,16.04 C219.682,13.787 219.784,11.871 219.848,11.973 C219.912,12.074 220.014,14.3 220.078,16.77 C220.142,19.24 220.244,25.302 220.308,29.776 C220.372,34.25 220.475,43.227 220.539,49.014 C220.603,54.8 220.705,65.292 220.769,71.483 C220.833,77.673 220.935,88.021 220.999,93.631 C221.063,99.241 221.165,107.79 221.229,111.918 C221.293,116.046 221.395,121.412 221.459,123.383 C221.523,125.355 221.625,126.649 221.689,126.128 C221.753,125.608 221.855,122.585 221.919,119.631 C221.983,116.678 222.085,109.78 222.149,104.844 C222.213,99.908 222.315,90.202 222.379,84.053 C222.443,77.904 222.546,66.915 222.609,60.523 C222.673,54.132 222.776,43.603 222.839,37.986 C222.903,32.369 223.006,23.982 223.07,20.04 C223.133,16.099 223.236,11.205 223.3,9.579 C223.363,7.952 223.466,7.355 223.53,8.318 C223.594,9.28 223.696,13.101 223.76,16.514 C223.824,19.927 223.926,27.582 223.99,32.916 C224.054,38.249 224.156,48.541 224.22,54.956 C224.284,61.371 224.386,72.671 224.45,79.151 C224.514,85.632 224.616,96.148 224.68,101.662 C224.744,107.177 224.846,115.23 224.91,118.899 C224.974,122.567 225.076,126.868 225.14,128.1 C225.204,129.332 225.306,129.186 225.37,127.779 C225.434,126.371 225.536,121.788 225.6,117.959 C225.664,114.13 225.767,105.83 225.83,100.184 C225.894,94.537 225.997,83.832 226.06,77.262 C226.124,70.691 226.227,59.281 226.29,52.83 C226.354,46.379 226.457,36.076 226.521,30.769 C226.584,25.462 226.687,17.902 226.751,14.583 C226.814,11.264 226.917,7.65 226.981,6.845 C227.045,6.039 227.147,6.943 227.211,8.777 C227.275,10.612 227.377,15.886 227.441,20.067 C227.505,24.248 227.607,33.05 227.671,38.91 C227.735,44.77 227.837,55.697 227.901,62.303 C227.965,68.91 228.067,80.222 228.131,86.525 C228.195,92.829 228.297,102.731 228.361,107.733 C228.425,112.734 228.527,119.661 228.591,122.572 C228.655,125.483 228.757,128.345 228.821,128.712 C228.885,129.078 228.988,127.438 229.051,125.212 C229.115,122.987 229.218,117.125 229.281,112.672 C229.345,108.219 229.448,99.083 229.512,93.119 C229.575,87.155 229.678,76.21 229.742,69.688 C229.805,63.166 229.908,52.156 229.972,46.111 C230.035,40.067 230.138,30.736 230.202,26.123 C230.266,21.51 230.368,15.326 230.432,12.865 C230.496,10.404 230.598,8.321 230.662,8.387 C230.726,8.452 230.828,10.772 230.892,13.334 C230.956,15.896 231.058,22.217 231.122,26.85 C231.186,31.482 231.288,40.771 231.352,46.725 C231.416,52.679 231.518,63.44 231.582,69.762 C231.646,76.084 231.748,86.602 231.812,92.289 C231.876,97.976 231.978,106.59 232.042,110.75 C232.106,114.91 232.208,120.278 232.272,122.268 C232.336,124.258 232.439,125.565 232.502,125.095 C232.566,124.625 232.669,121.71 232.732,118.881 C232.796,116.052 232.899,109.42 232.963,104.706 C233.026,99.992 233.129,90.738 233.193,84.906 C233.256,79.073 233.359,68.688 233.423,62.672 C233.486,56.656 233.589,46.795 233.653,41.547 C233.717,36.299 233.819,28.51 233.883,24.848 C233.947,21.186 234.049,16.673 234.113,15.153 C234.177,13.632 234.279,13.061 234.343,13.892 C234.407,14.723 234.509,18.126 234.573,21.143 C234.637,24.16 234.739,30.943 234.803,35.638 C234.867,40.333 234.969,49.375 235.033,54.981 C235.097,60.588 235.199,70.426 235.263,76.046 C235.327,81.666 235.43,90.739 235.494,95.487 C235.558,100.235 235.66,107.125 235.724,110.267 C235.788,113.41 235.89,117.067 235.954,118.136 C236.018,119.206 236.12,119.111 236.184,117.975 C236.248,116.84 236.35,113.075 236.414,109.953 C236.478,106.831 236.58,100.056 236.644,95.476 C236.708,90.896 236.81,82.233 236.874,76.943 C236.938,71.653 237.04,62.502 237.104,57.349 C237.168,52.195 237.27,44.007 237.334,39.797 C237.398,35.588 237.5,29.631 237.564,27.009 C237.628,24.387 237.731,21.553 237.794,20.898 C237.858,20.242 237.961,20.913 238.024,22.286 C238.088,23.659 238.191,27.653 238.255,30.796 C238.318,33.938 238.421,40.556 238.485,44.935 C238.548,49.314 238.651,57.458 238.715,62.358 C238.778,67.257 238.881,75.611 238.945,80.249 C239.009,84.888 239.111,92.136 239.175,95.791 C239.239,99.446 239.341,104.473 239.405,106.594 C239.469,108.715 239.571,110.787 239.635,111.077 C239.699,111.368 239.801,110.229 239.865,108.688 C239.929,107.147 240.031,103.056 240.095,99.971 C240.159,96.887 240.261,90.561 240.325,86.456 C240.389,82.351 240.491,74.839 240.555,70.384 C240.619,65.929 240.721,58.442 240.785,54.345 C240.849,50.248 240.951,43.96 241.015,40.854 C241.079,37.748 241.182,33.613 241.245,31.958 C241.309,30.303 241.412,28.911 241.475,28.927 C241.539,28.944 241.642,30.437 241.706,32.075 C241.769,33.713 241.872,37.776 241.936,40.733 C241.999,43.69 242.102,49.613 242.166,53.387 C242.23,57.162 242.332,63.961 242.396,67.938 C242.46,71.916 242.562,78.501 242.626,82.051 C242.69,85.602 242.792,90.947 242.856,93.528 C242.92,96.108 243.022,99.414 243.086,100.651 C243.15,101.887 243.252,102.698 243.316,102.438 C243.38,102.178 243.482,100.445 243.546,98.776 C243.61,97.106 243.712,93.18 243.776,90.409 C243.84,87.637 243.942,82.204 244.006,78.799 C244.07,75.393 244.172,69.351 244.236,65.866 C244.3,62.38 244.402,56.696 244.466,53.678 C244.53,50.66 244.633,46.21 244.696,44.116 C244.76,42.023 244.863,39.462 244.926,38.588 C244.99,37.715 245.093,37.38 245.157,37.821 C245.22,38.262 245.323,40.128 245.387,41.769 C245.45,43.411 245.553,47.109 245.617,49.652 C245.681,52.195 245.783,57.082 245.847,60.097 C245.911,63.112 246.013,68.382 246.077,71.381 C246.141,74.38 246.243,79.195 246.307,81.71 C246.371,84.225 246.473,87.85 246.537,89.506 C246.601,91.162 246.703,93.074 246.767,93.644 C246.831,94.215 246.933,94.179 246.997,93.616 C247.061,93.053 247.163,91.151 247.227,89.585 C247.291,88.02 247.393,84.617 247.457,82.332 C247.521,80.047 247.624,75.736 247.687,73.116 C247.751,70.496 247.854,65.982 247.917,63.45 C247.981,60.917 248.084,56.916 248.147,54.862 C248.211,52.808 248.314,49.922 248.378,48.648 C248.441,47.374 248.544,46.007 248.608,45.68 C248.671,45.353 248.774,45.658 248.838,46.29 C248.902,46.922 249.004,48.782 249.068,50.235 C249.132,51.687 249.234,54.748 249.298,56.76 C249.362,58.773 249.464,62.504 249.528,64.739 C249.592,66.974 249.694,70.768 249.758,72.868 C249.822,74.968 249.924,78.23 249.988,79.873 C250.052,81.516 250.154,83.76 250.218,84.71 C250.282,85.661 250.385,86.582 250.449,86.722 C250.512,86.862 250.615,86.376 250.679,85.72 C250.742,85.065 250.845,83.31 250.909,81.996 C250.973,80.682 251.075,77.988 251.139,76.25 C251.203,74.512 251.305,71.342 251.369,69.47 C251.433,67.598 251.535,64.467 251.599,62.759 C251.663,61.05 251.765,58.444 251.829,57.157 C251.893,55.871 251.995,54.17 252.059,53.485 C252.123,52.801 252.225,52.228 252.289,52.224 C252.353,52.219 252.455,52.81 252.519,53.454 C252.583,54.098 252.685,55.704 252.749,56.865 C252.813,58.026 252.915,60.349 252.979,61.821 C253.043,63.293 253.146,65.936 253.209,67.476 C253.273,69.015 253.376,71.552 253.439,72.916 C253.503,74.28 253.606,76.321 253.67,77.307 C253.733,78.292 253.836,79.545 253.9,80.018 C253.963,80.49 254.066,80.8 254.13,80.712 C254.193,80.625 254.296,79.992 254.36,79.386 C254.424,78.781 254.526,77.35 254.59,76.347 C254.654,75.344 254.756,73.381 254.82,72.157 C254.884,70.933 254.986,68.77 255.05,67.527 C255.114,66.284 255.216,64.266 255.28,63.198 C255.344,62.129 255.446,60.563 255.51,59.826 C255.574,59.089 255.676,58.194 255.74,57.884 C255.804,57.575 255.906,57.454 255.97,57.598 C256.034,57.742 256.136,58.371 256.2,58.921 C256.264,59.471 256.367,60.712 256.43,61.56 C256.494,62.408 256.597,64.035 256.66,65.034 C256.724,66.032 256.827,67.772 256.891,68.757 C256.954,69.743 257.057,71.318 257.121,72.139 C257.184,72.96 257.287,74.135 257.351,74.673 C257.414,75.211 257.517,75.828 257.581,76.016 C257.645,76.203 257.747,76.197 257.811,76.026 C257.875,75.854 257.977,75.262 258.041,74.778 C258.105,74.295 258.207,73.242 258.271,72.54 C258.335,71.837 258.437,70.514 258.501,69.713 C258.565,68.913 258.667,67.54 258.731,66.772 C258.795,66.005 258.897,64.798 258.961,64.18 C259.025,63.562 259.127,62.698 259.191,62.316 C259.255,61.934 259.357,61.526 259.421,61.425 C259.485,61.325 259.587,61.41 259.651,61.589 C259.715,61.768 259.818,62.302 259.881,62.716 C259.945,63.13 260.048,64.003 260.111,64.574 C260.175,65.145 260.278,66.201 260.342,66.831 C260.405,67.46 260.508,68.525 260.572,69.112 C260.635,69.699 260.738,70.607 260.802,71.063 C260.866,71.52 260.968,72.139 261.032,72.403 C261.096,72.666 261.198,72.92 261.262,72.962 C261.326,73.004 261.428,72.877 261.492,72.705 C261.556,72.533 261.658,72.068 261.722,71.722 C261.786,71.376 261.888,70.666 261.952,70.211 C262.016,69.756 262.118,68.928 262.182,68.442 C262.246,67.955 262.348,67.145 262.412,66.704 C262.476,66.262 262.578,65.593 262.642,65.263 C262.706,64.932 262.808,64.499 262.872,64.323 C262.936,64.147 263.039,64.001 263.102,63.996 C263.166,63.992 263.269,64.136 263.332,64.293 C263.396,64.449 263.499,64.842 263.563,65.125 C263.626,65.407 263.729,65.972 263.793,66.328 C263.856,66.684 263.959,67.321 264.023,67.691 C264.086,68.06 264.189,68.667 264.253,68.992 C264.317,69.318 264.419,69.802 264.483,70.036 C264.547,70.27 264.649,70.566 264.713,70.679 C264.777,70.791 264.879,70.865 264.943,70.848 C265.007,70.83 265.109,70.686 265.173,70.55 C265.237,70.413 265.34,70.09 265.403,69.865 C265.467,69.639 265.57,69.198 265.633,68.925 C265.697,68.652 265.8,68.172 265.864,67.896 C265.927,67.62 266.03,67.17 266.094,66.934 C266.157,66.698 266.26,66.354 266.324,66.192 C266.388,66.03 266.49,65.835 266.554,65.766 C266.618,65.698 266.72,65.67 266.784,65.698 C266.848,65.727 266.95,65.859 267.014,65.974 C267.078,66.089 267.18,66.348 267.244,66.525 C267.308,66.701 267.41,67.039 267.474,67.246 C267.538,67.453 267.64,67.812 267.704,68.015 C267.768,68.218 267.87,68.54 267.934,68.708 C267.998,68.876 268.1,69.116 268.164,69.225 C268.228,69.335 268.331,69.46 268.394,69.499 C268.458,69.538 268.561,69.538 268.624,69.506 C268.688,69.473 268.791,69.358 268.854,69.265 C268.918,69.171 269.021,68.967 269.085,68.831 C269.148,68.696 269.251,68.441 269.315,68.287 C269.378,68.134 269.481,67.871 269.545,67.724 C269.609,67.578 269.711,67.349 269.775,67.231 C269.839,67.114 269.941,66.95 270.005,66.878 C270.069,66.805 270.171,66.728 270.235,66.708 C270.299,66.688 270.401,66.702 270.465,66.734 C270.529,66.766 270.631,66.862 270.695,66.937 C270.759,67.011 270.861,67.168 270.925,67.271 C270.989,67.373 271.091,67.562 271.155,67.674 C271.219,67.787 271.321,67.976 271.385,68.08 C271.449,68.185 271.551,68.346 271.615,68.427 C271.679,68.508 271.782,68.616 271.845,68.663 C271.909,68.71 272.012,68.755 272.075,68.763 C272.139,68.771 272.242,68.751 272.306,68.722 C272.369,68.694 272.472,68.616 272.536,68.558 C272.599,68.5 272.766,68.304 272.766,68.304" fill-opacity="0" stroke="#FBD020" stroke-width="2" stroke-opacity="0.5"/>
    <path d="M76.249,16.584 L93.39,19.36 C93.39,19.36 97.049,22.014 92.665,23.617" fill="url(#Gradient_1)"/>
    <path d="M129.604,124.406 L145.29,105.083 C145.29,105.083 151.201,102.43 150.064,109.023" fill="url(#Gradient_2)"/>
    <path d="M129.348,141.813 C119.915,141.813 112.269,134.166 112.269,124.734 C112.269,115.302 119.915,107.656 129.348,107.656 C138.78,107.656 146.426,115.302 146.426,124.734 C146.426,134.166 138.78,141.813 129.348,141.813 z" fill="url(#Gradient_3)"/>
    <path d="M96.791,27.995 C92.99,27.995 89.908,24.913 89.908,21.112 C89.908,17.31 92.99,14.228 96.791,14.228 C100.593,14.228 103.674,17.31 103.674,21.112 C103.674,24.913 100.593,27.995 96.791,27.995 z" fill="url(#Gradient_4)"/>
    <path d="M74.5,27.809 C68.236,27.809 63.158,22.731 63.158,16.467 C63.158,10.204 68.236,5.126 74.5,5.126 C80.763,5.126 85.841,10.204 85.841,16.467 C85.841,22.731 80.763,27.809 74.5,27.809 z" fill="url(#Gradient_5)"/>
    <path d="M152.875,110.152 C147.528,110.152 143.193,105.817 143.193,100.47 C143.193,95.123 147.528,90.788 152.875,90.788 C158.222,90.788 162.557,95.123 162.557,100.47 C162.557,105.817 158.222,110.152 152.875,110.152 z" fill="url(#Gradient_6)"/>
    <path d="M111.97,80.949 L108.313,86.281 L103.87,83.205 Q99.529,87.614 87.327,87.614 Q73.962,87.614 70.168,83.598 Q66.375,79.581 66.375,65.397 Q66.375,48.888 69.98,44.513 Q73.586,40.138 87.19,40.138 Q100.588,40.138 104.297,44.257 Q108.005,48.375 108.005,63.244 Q108.005,73.805 107.083,77.599 z M85.413,70.592 L89.104,65.26 L98.743,71.789 Q99.016,69.259 99.016,68.405 L99.016,63.688 L99.016,57.912 Q99.016,51.383 96.897,49.555 Q94.778,47.726 87.292,47.726 Q78.372,47.726 76.868,50.016 Q75.364,52.306 75.364,65.875 Q75.364,76.129 77.192,78.078 Q79.021,80.026 88.625,80.026 Q93.513,80.026 96.282,77.941 z" fill="#000000"/>
    <path d="M115.422,87.204 L115.422,40.548 L138.357,40.548 Q148.132,40.548 152.046,44.821 Q155.959,49.093 155.959,59.791 Q155.959,77.257 152.815,82.23 Q149.67,87.204 138.63,87.204 z M124.275,79.752 L136.887,79.752 Q143.245,79.752 145.107,76.83 Q146.97,73.908 146.97,63.927 Q146.97,53.605 145.295,50.802 Q143.621,47.999 137.434,47.999 L124.275,47.999 z" fill="#000000"/>
    <path d="M201.077,40.548 L183.782,69.396 L183.782,87.204 L174.929,87.204 L174.929,69.396 L158.113,40.548 L168.367,40.548 L175.408,52.853 Q175.989,53.878 177.39,56.647 L178.381,58.527 L179.338,60.407 L179.578,60.407 L180.569,58.527 L181.56,56.647 Q182.825,54.118 183.577,52.853 L190.686,40.548 z" fill="#000000"/>
    <path d="M248.279,40.548 L248.279,87.204 L233.274,87.204 L219.944,61.603 Q218.953,59.689 216.833,54.904 L215.33,51.554 L213.86,48.205 L213.518,48.205 L213.655,51.281 L213.757,54.323 L213.826,60.441 L213.826,87.204 L204.973,87.204 L204.973,40.548 L219.978,40.548 L232.112,64.201 Q233.718,67.345 235.837,71.823 L237.615,75.617 L239.392,79.445 L239.7,79.445 L239.597,76.437 L239.495,73.429 L239.426,67.414 L239.426,40.548 z" fill="#000000"/>
    <path d="M10.441,148.858 L10.441,164.866 L7.758,164.866 L7.758,158.42 L7.711,158.409 Q6.973,160.202 4.266,160.202 Q1.793,160.202 0.896,158.954 Q0,157.706 0,154.26 Q0,151.085 0.92,149.907 Q1.84,148.729 4.312,148.729 Q6.855,148.729 7.723,150.534 L7.793,150.51 L7.758,148.858 z M5.121,150.85 Q3.656,150.85 3.188,151.512 Q2.719,152.174 2.719,154.249 Q2.719,156.745 3.158,157.413 Q3.598,158.081 5.238,158.081 Q6.727,158.081 7.225,157.389 Q7.723,156.698 7.723,154.635 Q7.723,152.245 7.248,151.547 Q6.773,150.85 5.121,150.85 z" fill="#000000"/>
    <path d="M23.027,148.858 L23.027,160.061 L20.344,160.061 L20.496,158.139 L20.449,158.128 Q19.664,160.19 16.84,160.19 Q13.031,160.19 13.031,156.381 L13.031,148.858 L15.715,148.858 L15.715,155.737 Q15.715,157.167 16.113,157.618 Q16.512,158.069 17.766,158.069 Q20.344,158.069 20.344,154.975 L20.344,148.858 z" fill="#000000"/>
    <path d="M28.535,152.104 L25.793,152.104 Q25.793,150.088 26.73,149.409 Q27.668,148.729 30.445,148.729 Q33.469,148.729 34.535,149.561 Q35.602,150.393 35.602,152.737 L35.602,160.061 L32.918,160.061 L33.047,158.526 L32.977,158.514 Q32.203,160.19 29.402,160.19 Q25.336,160.19 25.336,156.733 Q25.336,153.241 29.496,153.241 Q32.273,153.241 32.871,154.518 L32.918,154.518 L32.918,152.702 Q32.918,151.389 32.461,150.961 Q32.004,150.534 30.586,150.534 Q28.535,150.534 28.535,152.104 z M30.328,155.045 Q28.055,155.045 28.055,156.616 Q28.055,157.706 28.523,158.045 Q28.992,158.385 30.492,158.385 Q32.941,158.385 32.941,156.733 Q32.941,155.045 30.328,155.045 z" fill="#000000"/>
    <path d="M38.273,148.858 L40.934,148.858 L40.828,150.745 L40.887,150.756 Q41.672,148.729 44.402,148.729 Q48.375,148.729 48.375,152.432 L48.375,160.061 L45.691,160.061 L45.691,153.311 L45.691,152.889 L45.633,152.104 Q45.445,150.85 43.664,150.85 Q40.957,150.85 40.957,153.417 L40.957,160.061 L38.273,160.061 z" fill="#000000"/>
    <path d="M58.23,148.858 L58.23,150.897 L53.918,150.897 L53.918,156.522 Q53.918,158.081 55.102,158.081 Q56.402,158.081 56.402,156.194 L56.402,155.749 L58.688,155.749 L58.688,156.311 Q58.688,157.085 58.641,157.635 Q58.418,160.202 54.82,160.202 Q51.234,160.202 51.234,156.909 L51.234,150.897 L49.781,150.897 L49.781,148.858 L51.234,148.858 L51.234,146.35 L53.918,146.35 L53.918,148.858 z" fill="#000000"/>
    <path d="M70.113,148.858 L70.113,160.061 L67.43,160.061 L67.582,158.139 L67.535,158.128 Q66.75,160.19 63.926,160.19 Q60.117,160.19 60.117,156.381 L60.117,148.858 L62.801,148.858 L62.801,155.737 Q62.801,157.167 63.199,157.618 Q63.598,158.069 64.852,158.069 Q67.43,158.069 67.43,154.975 L67.43,148.858 z" fill="#000000"/>
    <path d="M72.832,148.858 L75.516,148.858 L75.445,150.581 L75.504,150.592 Q76.324,148.729 78.926,148.729 Q81.961,148.729 82.301,150.803 L82.348,150.803 Q83.133,148.729 85.805,148.729 Q89.695,148.729 89.695,152.643 L89.695,160.061 L87.012,160.061 L87.012,153.229 Q87.012,150.85 85.055,150.85 Q82.605,150.85 82.605,153.51 L82.605,160.061 L79.922,160.061 L79.922,153.124 Q79.922,151.729 79.553,151.29 Q79.184,150.85 77.988,150.85 Q75.516,150.85 75.516,153.569 L75.516,160.061 L72.832,160.061 z" fill="#000000"/>
    <path d="M108.41,144.065 L108.41,160.061 L105.797,160.061 L105.891,158.256 L105.844,158.245 Q105.059,160.202 102.422,160.202 Q99.762,160.202 98.9,158.989 Q98.039,157.776 98.039,154.061 Q98.039,151.061 98.965,149.895 Q99.891,148.729 102.258,148.729 Q105,148.729 105.68,150.463 L105.727,150.452 L105.727,144.065 z M103.148,150.85 Q101.648,150.85 101.203,151.489 Q100.758,152.128 100.758,154.237 Q100.758,156.674 101.203,157.378 Q101.648,158.081 103.195,158.081 Q104.812,158.081 105.264,157.389 Q105.715,156.698 105.715,154.202 Q105.715,152.139 105.217,151.495 Q104.719,150.85 103.148,150.85 z" fill="#000000"/>
    <path d="M120.27,148.858 L117.328,160.764 Q116.707,163.295 115.787,164.169 Q114.867,165.042 112.84,165.042 Q112.383,165.042 111.891,164.995 L111.891,163.014 Q112.242,163.038 112.477,163.038 Q114.188,163.038 114.645,160.061 L113.273,160.061 L109.605,148.858 L112.488,148.858 L113.895,153.604 L114.598,155.983 Q114.656,156.217 114.926,157.178 L115.266,158.362 L115.324,158.362 L115.57,157.178 Q115.758,156.264 115.816,155.983 L116.367,153.604 L117.445,148.858 z" fill="#000000"/>
    <path d="M121.477,148.858 L124.137,148.858 L124.031,150.745 L124.09,150.756 Q124.875,148.729 127.605,148.729 Q131.578,148.729 131.578,152.432 L131.578,160.061 L128.895,160.061 L128.895,153.311 L128.895,152.889 L128.836,152.104 Q128.648,150.85 126.867,150.85 Q124.16,150.85 124.16,153.417 L124.16,160.061 L121.477,160.061 z" fill="#000000"/>
    <path d="M136.992,152.104 L134.25,152.104 Q134.25,150.088 135.188,149.409 Q136.125,148.729 138.902,148.729 Q141.926,148.729 142.992,149.561 Q144.059,150.393 144.059,152.737 L144.059,160.061 L141.375,160.061 L141.504,158.526 L141.434,158.514 Q140.66,160.19 137.859,160.19 Q133.793,160.19 133.793,156.733 Q133.793,153.241 137.953,153.241 Q140.73,153.241 141.328,154.518 L141.375,154.518 L141.375,152.702 Q141.375,151.389 140.918,150.961 Q140.461,150.534 139.043,150.534 Q136.992,150.534 136.992,152.104 z M138.785,155.045 Q136.512,155.045 136.512,156.616 Q136.512,157.706 136.98,158.045 Q137.449,158.385 138.949,158.385 Q141.398,158.385 141.398,156.733 Q141.398,155.045 138.785,155.045 z" fill="#000000"/>
    <path d="M146.73,148.858 L149.414,148.858 L149.344,150.581 L149.402,150.592 Q150.223,148.729 152.824,148.729 Q155.859,148.729 156.199,150.803 L156.246,150.803 Q157.031,148.729 159.703,148.729 Q163.594,148.729 163.594,152.643 L163.594,160.061 L160.91,160.061 L160.91,153.229 Q160.91,150.85 158.953,150.85 Q156.504,150.85 156.504,153.51 L156.504,160.061 L153.82,160.061 L153.82,153.124 Q153.82,151.729 153.451,151.29 Q153.082,150.85 151.887,150.85 Q149.414,150.85 149.414,153.569 L149.414,160.061 L146.73,160.061 z" fill="#000000"/>
    <path d="M169.02,144.065 L169.02,146.303 L166.336,146.303 L166.336,144.065 z M169.02,148.858 L169.02,160.061 L166.336,160.061 L166.336,148.858 z" fill="#000000"/>
    <path d="M178.793,155.784 L181.465,155.784 L181.465,156.17 L181.301,157.87 Q180.809,160.19 176.496,160.19 Q173.332,160.19 172.289,159.047 Q171.246,157.905 171.246,154.448 Q171.246,151.073 172.289,149.901 Q173.332,148.729 176.344,148.729 Q179.25,148.729 180.281,149.579 Q181.312,150.428 181.312,152.807 L178.652,152.807 Q178.652,150.85 176.391,150.85 Q174.785,150.85 174.375,151.471 Q173.965,152.092 173.965,154.518 Q173.965,156.862 174.416,157.465 Q174.867,158.069 176.625,158.069 Q178.008,158.069 178.4,157.653 Q178.793,157.237 178.793,155.784 z" fill="#000000"/>
    <path d="M192.785,151.94 L190.16,151.94 Q190.137,151.799 190.125,151.729 Q190.043,150.92 189.662,150.721 Q189.281,150.522 187.816,150.522 Q185.719,150.522 185.719,151.881 Q185.719,152.807 186.088,152.983 Q186.457,153.159 188.59,153.264 Q191.461,153.405 192.328,154.026 Q193.195,154.647 193.195,156.569 Q193.195,158.62 192.041,159.411 Q190.887,160.202 187.898,160.202 Q185.027,160.202 183.973,159.487 Q182.918,158.772 182.918,156.815 L182.918,156.534 L185.707,156.534 Q185.648,156.768 185.637,156.909 Q185.473,158.397 187.934,158.397 Q190.477,158.397 190.477,156.92 Q190.477,155.503 188.883,155.503 Q185.285,155.503 184.143,154.823 Q183,154.143 183,151.999 Q183,150.077 184.043,149.397 Q185.086,148.717 188.051,148.717 Q190.852,148.717 191.818,149.374 Q192.785,150.03 192.785,151.94 z" fill="#000000"/>
    <path d="M204.094,152.104 L201.352,152.104 Q201.352,150.088 202.289,149.409 Q203.227,148.729 206.004,148.729 Q209.027,148.729 210.094,149.561 Q211.16,150.393 211.16,152.737 L211.16,160.061 L208.477,160.061 L208.605,158.526 L208.535,158.514 Q207.762,160.19 204.961,160.19 Q200.895,160.19 200.895,156.733 Q200.895,153.241 205.055,153.241 Q207.832,153.241 208.43,154.518 L208.477,154.518 L208.477,152.702 Q208.477,151.389 208.02,150.961 Q207.562,150.534 206.145,150.534 Q204.094,150.534 204.094,152.104 z M205.887,155.045 Q203.613,155.045 203.613,156.616 Q203.613,157.706 204.082,158.045 Q204.551,158.385 206.051,158.385 Q208.5,158.385 208.5,156.733 Q208.5,155.045 205.887,155.045 z" fill="#000000"/>
    <path d="M213.832,148.858 L216.492,148.858 L216.387,150.745 L216.445,150.756 Q217.23,148.729 219.961,148.729 Q223.934,148.729 223.934,152.432 L223.934,160.061 L221.25,160.061 L221.25,153.311 L221.25,152.889 L221.191,152.104 Q221.004,150.85 219.223,150.85 Q216.516,150.85 216.516,153.417 L216.516,160.061 L213.832,160.061 z" fill="#000000"/>
    <path d="M236.531,144.065 L236.531,160.061 L233.918,160.061 L234.012,158.256 L233.965,158.245 Q233.18,160.202 230.543,160.202 Q227.883,160.202 227.021,158.989 Q226.16,157.776 226.16,154.061 Q226.16,151.061 227.086,149.895 Q228.012,148.729 230.379,148.729 Q233.121,148.729 233.801,150.463 L233.848,150.452 L233.848,144.065 z M231.27,150.85 Q229.77,150.85 229.324,151.489 Q228.879,152.128 228.879,154.237 Q228.879,156.674 229.324,157.378 Q229.77,158.081 231.316,158.081 Q232.934,158.081 233.385,157.389 Q233.836,156.698 233.836,154.202 Q233.836,152.139 233.338,151.495 Q232.84,150.85 231.27,150.85 z" fill="#000000"/>
    <path d="M252.305,155.784 L254.977,155.784 L254.977,156.17 L254.812,157.87 Q254.32,160.19 250.008,160.19 Q246.844,160.19 245.801,159.047 Q244.758,157.905 244.758,154.448 Q244.758,151.073 245.801,149.901 Q246.844,148.729 249.855,148.729 Q252.762,148.729 253.793,149.579 Q254.824,150.428 254.824,152.807 L252.164,152.807 Q252.164,150.85 249.902,150.85 Q248.297,150.85 247.887,151.471 Q247.477,152.092 247.477,154.518 Q247.477,156.862 247.928,157.465 Q248.379,158.069 250.137,158.069 Q251.519,158.069 251.912,157.653 Q252.305,157.237 252.305,155.784 z" fill="#000000"/>
    <path d="M261.867,148.729 Q265.113,148.729 266.121,149.766 Q267.129,150.803 267.129,154.143 Q267.129,157.87 266.144,159.03 Q265.16,160.19 261.996,160.19 Q258.562,160.19 257.549,159.112 Q256.535,158.034 256.535,154.366 Q256.535,150.838 257.531,149.784 Q258.527,148.729 261.867,148.729 z M261.844,150.85 Q260.168,150.85 259.711,151.454 Q259.254,152.057 259.254,154.272 Q259.254,156.803 259.687,157.436 Q260.121,158.069 261.855,158.069 Q263.531,158.069 263.971,157.401 Q264.41,156.733 264.41,154.19 Q264.41,152.045 263.953,151.448 Q263.496,150.85 261.844,150.85 z" fill="#000000"/>
    <path d="M269.367,148.858 L272.027,148.858 L271.922,150.745 L271.98,150.756 Q272.766,148.729 275.496,148.729 Q279.469,148.729 279.469,152.432 L279.469,160.061 L276.785,160.061 L276.785,153.311 L276.785,152.889 L276.727,152.104 Q276.539,150.85 274.758,150.85 Q272.051,150.85 272.051,153.417 L272.051,160.061 L269.367,160.061 z" fill="#000000"/>
    <path d="M289.324,148.858 L289.324,150.897 L285.012,150.897 L285.012,156.522 Q285.012,158.081 286.195,158.081 Q287.496,158.081 287.496,156.194 L287.496,155.749 L289.781,155.749 L289.781,156.311 Q289.781,157.085 289.734,157.635 Q289.512,160.202 285.914,160.202 Q282.328,160.202 282.328,156.909 L282.328,150.897 L280.875,150.897 L280.875,148.858 L282.328,148.858 L282.328,146.35 L285.012,146.35 L285.012,148.858 z" fill="#000000"/>
    <path d="M291.328,148.858 L294.012,148.858 L293.848,150.428 L293.906,150.44 Q294.867,148.682 296.93,148.682 Q299.883,148.682 299.883,152.409 L299.883,153.194 L297.352,153.194 Q297.398,152.737 297.398,152.596 Q297.398,150.803 296.004,150.803 Q294.012,150.803 294.012,153.463 L294.012,160.061 L291.328,160.061 z" fill="#000000"/>
    <path d="M306.293,148.729 Q309.539,148.729 310.547,149.766 Q311.555,150.803 311.555,154.143 Q311.555,157.87 310.57,159.03 Q309.586,160.19 306.422,160.19 Q302.988,160.19 301.975,159.112 Q300.961,158.034 300.961,154.366 Q300.961,150.838 301.957,149.784 Q302.953,148.729 306.293,148.729 z M306.269,150.85 Q304.594,150.85 304.137,151.454 Q303.68,152.057 303.68,154.272 Q303.68,156.803 304.113,157.436 Q304.547,158.069 306.281,158.069 Q307.957,158.069 308.396,157.401 Q308.836,156.733 308.836,154.19 Q308.836,152.045 308.379,151.448 Q307.922,150.85 306.269,150.85 z" fill="#000000"/>
    <path d="M316.477,144.065 L316.477,160.061 L313.793,160.061 L313.793,144.065 z" fill="#000000"/>
  </g>
</svg>
